<svg width="34" height="32" viewBox="0 0 34 32" fill="none" xmlns="http://www.w3.org/2000/svg">
<g clip-path="url(#clip0_0_920)">
<path d="M16.6664 31.9988H15.5904C15.5857 31.9554 15.6309 31.9441 15.6486 31.9149H15.736C15.7681 31.9141 15.8023 31.9198 15.8234 31.8869C15.8428 31.8869 15.8622 31.8869 15.8817 31.8869C16.1307 31.889 16.3718 31.8456 16.6086 31.7755C16.7631 31.7775 16.9134 31.7475 17.0658 31.7285C17.4381 31.6815 17.7994 31.5858 18.1709 31.5356C18.5559 31.4837 18.9219 31.3447 19.2967 31.2458C19.3752 31.2251 19.4622 31.2247 19.5331 31.1911C19.7328 31.0963 19.9439 31.0363 20.1566 30.9783C20.4015 30.9119 20.6163 30.7753 20.8569 30.695C21.122 30.6067 21.361 30.4657 21.5805 30.2967C21.6067 30.2764 21.6438 30.263 21.6248 30.2217C21.6109 30.1917 21.5767 30.1783 21.5543 30.2022C21.4581 30.3044 21.3171 30.3222 21.1989 30.381C20.8451 30.556 20.4779 30.7023 20.1026 30.8304C19.8898 30.9029 19.6745 30.9682 19.4626 31.0407C19.3132 31.0918 19.1621 31.1425 19.0105 31.1814C18.607 31.2851 18.1975 31.3698 17.7893 31.4573C17.4187 31.5368 17.0442 31.5964 16.6668 31.6353C16.6069 31.6349 16.5461 31.63 16.4925 31.6632H16.376C16.327 31.6697 16.2713 31.6446 16.2308 31.6908C16.2016 31.6908 16.1725 31.6908 16.1434 31.6908C16.1113 31.6916 16.0771 31.6859 16.056 31.7183C15.4431 31.737 14.8301 31.7564 14.2168 31.7739C13.9947 31.7803 13.7752 31.7333 13.5515 31.7447C13.1986 31.7625 12.8474 31.6985 12.494 31.7171C12.4725 31.7183 12.4438 31.7204 12.4379 31.662C12.6118 31.6798 12.7781 31.6357 12.9491 31.6344C13.3075 31.6324 13.6676 31.6494 14.0243 31.6235C14.3696 31.5984 14.7149 31.5692 15.0606 31.5497C15.129 31.5457 15.1906 31.6004 15.259 31.568C15.446 31.4788 15.655 31.5194 15.8525 31.478C16.1029 31.4253 16.3642 31.399 16.6212 31.3658C16.861 31.335 17.089 31.2563 17.3262 31.217C17.5225 31.1846 17.696 31.0991 17.8737 31.0156C17.558 31.0087 17.2591 31.1283 16.9307 31.1112C16.9636 31.0444 17.0231 31.0302 17.0818 31.0144C17.2899 30.9593 17.4968 30.9001 17.7066 30.8507C18.0126 30.7785 18.3161 30.6995 18.6188 30.6176C18.9291 30.5337 19.2081 30.3907 19.4985 30.2748C19.8873 30.1196 20.2934 29.9858 20.6379 29.7406C20.8329 29.602 21.076 29.5457 21.2643 29.3986C21.4999 29.2142 21.7764 29.0881 22.0119 28.9033C22.2268 28.7348 22.4763 28.6018 22.6709 28.415C22.9782 28.12 23.3125 27.8529 23.6029 27.5388C23.9495 27.1639 24.2889 26.7878 24.5375 26.3449C24.6431 26.1576 24.7448 25.9708 24.6431 25.7427C24.5798 25.6016 24.5979 25.4472 24.676 25.3135C24.744 25.1968 24.8115 25.0796 24.8951 24.9698C24.9825 24.8551 25.0914 24.7518 25.1391 24.6111C25.1543 24.5662 25.1783 24.5163 25.1416 24.4794C25.0943 24.432 25.042 24.4734 24.9964 24.4952C24.7706 24.6047 24.6025 24.7874 24.4054 24.9329C24.0702 25.1805 23.8554 25.5388 23.5582 25.8237C23.4244 25.9522 23.3053 26.1009 23.2049 26.2614C23.0807 26.46 22.9414 26.6488 22.7608 26.8073C22.7072 26.8543 22.6422 26.8823 22.5898 26.9301C22.3222 27.1737 22.014 27.3617 21.6772 27.5015C21.2575 27.6754 20.824 27.816 20.3989 27.9761C19.9282 28.1532 19.4647 28.3481 19.0038 28.5475C18.5859 28.7279 18.1751 28.924 17.7614 29.1141C17.7323 29.1275 17.6876 29.1388 17.7019 29.1797C17.7163 29.2211 17.7581 29.2024 17.7897 29.1959C18.1603 29.1173 18.5407 29.0655 18.8953 28.9378C19.3672 28.7672 19.8493 28.6257 20.309 28.417C20.8802 28.1581 21.4484 27.8979 21.9866 27.5789C22.5923 27.2199 23.158 26.8126 23.6772 26.3449C23.7102 26.3149 23.7435 26.2411 23.8026 26.3076C23.8427 26.353 23.8174 26.3964 23.7722 26.4389C23.611 26.5909 23.4387 26.7311 23.2711 26.8762C22.7713 27.3094 22.2124 27.6596 21.6324 27.983C21.136 28.2602 20.6303 28.5163 20.1017 28.7343C19.6184 28.9337 19.1215 29.0983 18.6217 29.2478C18.0544 29.4172 17.4714 29.542 16.8821 29.6292C16.8125 29.6393 16.7378 29.6494 16.6765 29.6916C16.3173 29.9384 15.9572 30.1848 15.5676 30.387C15.327 30.5119 15.0813 30.6075 14.801 30.6022C14.5161 30.597 14.2315 30.5949 13.9466 30.5771C13.4831 30.5479 13.02 30.582 12.5628 30.6606C12.2652 30.7121 11.9672 30.7716 11.6768 30.8519C11.3606 30.939 11.0436 31.0079 10.7143 31.0201C10.1229 31.0424 9.54078 30.9767 8.96498 30.8494C8.48544 30.7437 8.01898 30.597 7.55674 30.4393C7.28995 30.3485 7.03456 30.2278 6.77368 30.1216C6.09573 29.846 5.45915 29.4971 4.8555 29.0958C4.30884 28.7323 3.84449 28.2825 3.45908 27.7601C3.32653 27.5801 3.24041 27.3791 3.1792 27.1684C3.16274 27.1121 3.16992 27.0521 3.221 27.0152C3.26701 26.982 3.31978 27.016 3.35481 27.0395C3.58741 27.1964 3.82127 27.3524 4.04416 27.5214C4.42113 27.8075 4.84621 28.015 5.27046 28.2225C5.5229 28.3461 5.80277 28.4154 6.04254 28.5662C6.07716 28.5876 6.11853 28.6071 6.14766 28.5755C6.17932 28.541 6.14259 28.5033 6.11937 28.4782C6.02946 28.3822 5.93406 28.291 5.84288 28.1961C5.75803 28.1078 5.67275 28.0195 5.59297 27.9271C5.56258 27.8918 5.544 27.844 5.56975 27.7966C5.59761 27.7447 5.65123 27.7508 5.69808 27.7544C5.76014 27.7593 5.82177 27.7702 5.8834 27.7816C6.09067 27.8197 6.30933 27.8265 6.49761 27.9222C6.64409 27.9968 6.79732 28.0567 6.95056 28.1058C7.46556 28.2715 7.98605 28.4207 8.50739 28.5682C8.95612 28.6954 9.41498 28.7716 9.88313 28.7846C10.1444 28.7919 10.4066 28.7826 10.6683 28.7878C10.762 28.7895 10.8498 28.7668 10.9406 28.7579C10.971 28.7546 11.0005 28.7465 11.0119 28.7181C11.0271 28.68 10.9963 28.6569 10.9693 28.6383C10.9423 28.6193 10.9106 28.6059 10.8806 28.5909C10.5948 28.449 10.2918 28.3449 9.99795 28.2213C9.60156 28.0547 9.2018 27.8958 8.81006 27.72C8.50021 27.581 8.19839 27.4253 7.89741 27.2693C7.49089 27.059 7.09408 26.8336 6.70108 26.5994C6.34353 26.3866 6.00329 26.154 5.66558 25.9169C5.3819 25.7179 5.0995 25.5145 4.85086 25.2734C4.82173 25.245 4.79176 25.1968 4.74321 25.2219C4.68623 25.2515 4.72591 25.3042 4.74532 25.3309C4.81329 25.4245 4.83144 25.5437 4.92262 25.6259C4.96737 25.6665 4.99776 25.7269 4.96188 25.7909C4.9298 25.8476 4.87323 25.8533 4.81202 25.8549C4.73182 25.8573 4.65879 25.8355 4.58787 25.8055C4.33459 25.6973 4.1079 25.5485 3.9057 25.3682C3.427 24.941 3.02724 24.4462 2.61439 23.9627C2.58822 23.9323 2.53503 23.8967 2.58442 23.8602C2.61988 23.8338 2.64774 23.8881 2.6756 23.9104C2.7748 23.9891 2.87316 24.0685 2.97194 24.1479C2.98038 24.139 2.98924 24.1301 2.99769 24.1216C2.9656 24.077 2.9369 24.0296 2.90102 23.9882C2.54811 23.5805 2.17748 23.1878 1.82795 22.7769C1.51008 22.4032 1.22472 22.0105 0.946111 21.6113C0.921205 21.5757 0.884057 21.5343 0.915717 21.4995C0.96173 21.4488 0.983681 21.5206 1.01787 21.5339C1.04827 21.5461 1.08331 21.5728 1.10863 21.566C1.1576 21.5534 1.13312 21.5035 1.13734 21.4691C1.14283 21.4221 1.12847 21.3783 1.11497 21.3329C1.05882 21.1493 0.973972 20.9779 0.88068 20.8105C0.700007 20.4875 0.602071 20.1366 0.503292 19.7864C0.492316 19.7475 0.497382 19.7025 0.503292 19.6616C0.508357 19.6276 0.530308 19.6065 0.57421 19.6097C0.711404 19.6203 0.721535 19.6041 0.667924 19.4829C0.452636 18.9982 0.239457 18.5127 0.0967759 18.0028C0.0815791 17.9489 0.0651158 17.9177 0.00390625 17.9238V17.6166C0.093821 17.6247 0.112817 17.7017 0.144899 17.7597C0.45348 18.3165 0.728712 18.892 1.13565 19.3929C1.25891 19.5449 1.37205 19.7082 1.53668 19.8261C1.57003 19.8501 1.60844 19.863 1.64263 19.8342C1.67556 19.8063 1.64854 19.7747 1.63588 19.7455C1.57551 19.6097 1.51642 19.4752 1.57256 19.3212C1.58818 19.2786 1.57171 19.2296 1.55145 19.1858C1.48518 19.0432 1.41764 18.9013 1.35685 18.7562C1.34123 18.7185 1.29015 18.661 1.34292 18.6338C1.40075 18.6039 1.4303 18.6695 1.46112 18.7104C1.5257 18.7968 1.58987 18.8843 1.65994 18.9666C1.684 18.9949 1.71397 19.0529 1.76083 19.0201C1.80093 18.9921 1.76759 18.9439 1.75112 18.9054C1.68907 18.7611 1.62828 18.6168 1.56792 18.4717C1.5523 18.4344 1.52021 18.3842 1.56918 18.3607C1.61562 18.3384 1.64685 18.3927 1.66796 18.4243C1.71229 18.4904 1.74352 18.5645 1.78532 18.6326C1.806 18.6663 1.83133 18.7141 1.88536 18.6894C1.93306 18.6675 1.9318 18.6164 1.91871 18.5779C1.89212 18.4989 1.85455 18.4231 1.82289 18.3453C1.71313 18.0778 1.6878 17.797 1.70004 17.5145C1.70258 17.4549 1.67894 17.3382 1.77561 17.3264C1.8499 17.3175 1.89549 17.4071 1.93602 17.4703C2.15679 17.814 2.30792 18.1909 2.46622 18.5613C2.56838 18.8004 2.73765 18.9917 2.86894 19.2081C2.94999 19.3414 3.06649 19.4675 3.18216 19.5846C3.29107 19.6948 3.40336 19.8018 3.51396 19.9104C3.53549 19.8193 3.50594 19.7617 3.47554 19.7046C3.39534 19.5514 3.28685 19.412 3.21002 19.2592C3.04623 18.935 2.86091 18.6213 2.71654 18.2865C2.55909 17.921 2.44047 17.5457 2.34084 17.1643C2.32058 17.0877 2.26486 16.9929 2.32734 16.896C2.4316 16.9872 2.46453 17.1076 2.52658 17.2105C2.55022 17.2498 2.57133 17.3086 2.62621 17.2908C2.67349 17.2754 2.65407 17.2158 2.64605 17.1781C2.54094 16.6833 2.4143 16.1941 2.21674 15.7244C2.1665 15.6049 2.16017 15.4695 2.07363 15.3633C1.99512 15.2669 1.95712 15.1518 1.9242 15.0375C1.83513 14.7307 1.77561 14.419 1.74184 14.1013C1.703 13.7346 1.71397 13.371 1.7659 13.0071C1.79291 12.8182 1.87143 12.6419 1.91787 12.4588C2.06941 11.8626 2.1378 11.2494 2.30412 10.6557C2.34675 10.5037 2.38939 10.3514 2.46622 10.2107C2.48353 10.1791 2.49661 10.1337 2.54685 10.1475C2.59159 10.1601 2.59244 10.2026 2.59244 10.2403C2.59244 10.2634 2.59328 10.2869 2.59244 10.31C2.57977 10.6756 2.55571 11.0407 2.53967 11.4059C2.52025 11.8444 2.53587 12.2845 2.63381 12.7165C2.64563 12.768 2.62832 12.86 2.71486 12.8608C2.80393 12.8616 2.79802 12.768 2.8149 12.7117C2.89975 12.4267 2.82714 12.1301 2.87907 11.8403C2.91199 11.6559 2.89173 11.463 2.92044 11.2774C2.97278 10.9398 3.01373 10.601 3.08296 10.265C3.19947 9.70051 3.34721 9.14732 3.61274 8.62817C3.6368 8.58075 3.67395 8.51996 3.72165 8.5305C3.78708 8.54509 3.74571 8.61722 3.75289 8.66424C3.75457 8.6768 3.74571 8.69098 3.74275 8.70436C3.67648 9.04965 3.55153 9.38075 3.48145 9.72604C3.39027 10.1751 3.32822 10.6274 3.26448 11.08C3.24337 11.2312 3.2611 11.3872 3.2611 11.5412C3.27587 11.542 3.29065 11.5433 3.30542 11.5441C3.32948 11.4573 3.37212 11.371 3.37381 11.2835C3.38352 10.8738 3.5034 10.4811 3.56841 10.0798C3.62582 9.72726 3.73811 9.38561 3.84955 9.046C3.9897 8.61966 4.14927 8.19858 4.41817 7.82574C4.45279 7.77791 4.4798 7.72401 4.58196 7.70942C4.20119 8.59048 3.99435 9.49261 3.83225 10.4093C3.67099 11.3224 3.60514 12.2363 3.6769 13.1607C3.76471 12.6338 3.66888 12.0892 3.8238 11.5619C3.88544 11.5878 3.87108 11.6648 3.92469 11.6543C3.97957 11.6434 3.97957 11.5814 3.98422 11.5392C4.0201 11.2312 4.1269 10.9386 4.19613 10.6383C4.20415 10.6034 4.21723 10.5544 4.26409 10.5605C4.32741 10.569 4.30588 10.6233 4.30208 10.6618C4.27549 10.9374 4.25649 11.2146 4.21681 11.4886C4.19233 11.6555 4.20795 11.8229 4.18642 11.9874C4.12943 12.4263 4.1269 12.8665 4.13745 13.307C4.13914 13.3718 4.13365 13.4938 4.21723 13.4918C4.32446 13.489 4.27675 13.3731 4.27591 13.3086C4.27253 12.8721 4.26282 12.4336 4.31432 12.0008C4.3616 11.6024 4.41395 11.2041 4.45025 10.8045C4.4836 10.434 4.57014 10.0742 4.66512 9.71672C4.71873 9.51489 4.81329 9.32158 4.89814 9.12786C4.98425 8.9309 5.09359 8.74853 5.18857 8.55806C5.20672 8.52118 5.24007 8.47903 5.28903 8.49443C5.34771 8.51307 5.31901 8.5613 5.31014 8.60101C5.26117 8.82067 5.18688 9.03546 5.20714 9.26687C5.22149 9.4306 5.18519 9.59027 5.10963 9.73901C4.97328 10.0073 4.84284 10.278 4.7639 10.5682C4.72675 10.7056 4.67905 10.8417 4.66132 10.9816C4.64823 11.0849 4.69931 11.1907 4.6858 11.2985C4.67061 11.4209 4.71535 11.5234 4.7888 11.6227C4.91502 11.7929 5.05391 11.7832 5.15944 11.5996C5.28397 11.3824 5.3418 11.1558 5.32871 10.907C5.32154 10.7741 5.29874 10.6363 5.34898 10.5058C5.48913 10.1414 5.71033 9.82087 5.94461 9.50801C5.95516 9.49423 5.97331 9.47923 5.98978 9.47761C6.01004 9.47558 6.01975 9.49463 6.02228 9.5153C6.03073 9.58379 6.05859 9.65552 6.04719 9.72037C5.9978 10.0028 6.03579 10.2861 6.02524 10.569C6.02355 10.6091 5.99611 10.6748 6.06787 10.6825C6.12106 10.6881 6.12655 10.6302 6.14048 10.5921C6.31018 10.135 6.46341 9.67336 6.65717 9.22351C6.83658 8.80689 7.03794 8.40284 7.26125 8.00811C7.35538 7.84154 7.46387 7.68268 7.5673 7.52138C7.58882 7.48774 7.61162 7.44803 7.57954 7.42047C7.53648 7.38399 7.51622 7.43992 7.48793 7.45897C7.47232 7.46951 7.45965 7.48409 7.44657 7.49787C7.05905 7.90719 6.76566 8.37974 6.46341 8.8462C6.38152 8.97224 6.30216 9.09949 6.20633 9.21621C6.18185 9.2458 6.15357 9.2997 6.10544 9.27822C6.05943 9.25755 6.07632 9.20081 6.08687 9.16434C6.12571 9.031 6.16412 8.89646 6.21731 8.76799C6.33635 8.48065 6.4955 8.21074 6.6272 7.92989C6.80745 7.5461 7.05398 7.20324 7.31824 6.877C7.699 6.40689 8.10763 5.95907 8.59097 5.57487C8.94219 5.29605 9.26723 4.98845 9.64589 4.73881C9.86751 4.5925 10.0562 4.40203 10.2888 4.26748C10.3234 4.24762 10.3542 4.20993 10.4251 4.24438C9.8063 4.93941 9.03759 5.49625 8.51161 6.26018C8.83412 6.09727 9.06967 5.83546 9.33604 5.61338C9.75353 5.26484 10.2035 4.96454 10.6772 4.70152C10.9938 4.52604 11.3298 4.37447 11.6595 4.21804C12.0428 4.03607 12.4109 3.82493 12.817 3.68916C13.0158 3.6227 13.1965 3.51246 13.4105 3.48004C13.5198 3.46343 13.6161 3.39737 13.6756 3.2997C13.7123 3.23931 13.7343 3.1611 13.706 3.10355C13.676 3.04235 13.5941 3.06343 13.5346 3.08166C13.4248 3.11571 13.3147 3.15056 13.2087 3.19514C12.7574 3.38399 12.3476 3.64215 11.9309 3.89058C11.7059 4.02472 11.4851 4.169 11.2365 4.2618C11.204 4.27396 11.1525 4.32057 11.1225 4.26748C11.0968 4.22249 11.147 4.18926 11.1799 4.16657C11.2551 4.11469 11.3251 4.05836 11.3863 3.9923C11.4011 3.97609 11.4201 3.95137 11.4167 3.93475C11.4096 3.89909 11.3703 3.90436 11.3446 3.90882C11.269 3.92219 11.1947 3.94326 11.1191 3.95664C11.079 3.96353 11.0267 3.98339 11.0052 3.9303C10.9883 3.88855 11.0271 3.86262 11.0571 3.83951C11.4796 3.51327 11.9571 3.29362 12.478 3.15177C12.8419 3.05248 13.2205 2.99413 13.5587 2.81662C13.6359 2.77609 13.7693 2.7538 13.7385 2.65005C13.7148 2.57062 13.589 2.56697 13.4958 2.56697C13.3919 2.56697 13.2944 2.54711 13.2691 2.43648C13.2421 2.31895 13.3594 2.29909 13.4307 2.25248C13.4531 2.23789 13.4865 2.23952 13.5131 2.22938C13.6173 2.19007 13.7305 2.19534 13.8385 2.1694C14.1045 2.10537 14.3366 1.97528 14.5739 1.85451C14.6397 1.82087 14.717 1.78359 14.7786 1.82736C14.8529 1.88004 14.7622 1.94286 14.7596 2.00324C14.7596 2.01054 14.7681 2.01824 14.7757 2.0304C15.0226 1.94002 15.2708 1.85208 15.5372 1.82411C15.6322 1.81439 15.7314 1.81763 15.8196 1.77224C15.8652 1.74873 15.9395 1.72928 15.9209 1.67336C15.9023 1.61662 15.8268 1.64499 15.7787 1.65066C15.7272 1.65674 15.6744 1.67538 15.6288 1.6997C15.5309 1.75117 15.4363 1.77062 15.3236 1.73617C15.2337 1.70861 15.1396 1.72766 15.0691 1.79899C15.018 1.85046 14.9741 1.84438 14.92 1.79818C14.8517 1.74022 14.8141 1.67376 14.8415 1.58946C14.8787 1.47599 14.9842 1.43668 15.0902 1.42655C15.2577 1.41115 15.4266 1.4002 15.5946 1.38805C15.7787 1.37467 15.9745 1.40142 16.1468 1.31186C16.2591 1.2535 16.3481 1.15502 16.4946 1.16231C16.5448 1.16474 16.5693 1.10152 16.5744 1.05654C16.5896 0.92604 16.6829 0.853092 16.7795 0.782575C16.9037 0.691795 17.0489 0.637489 17.1911 0.582372C17.7863 0.351774 18.3976 0.392301 19.0152 0.479839C19.3052 0.520771 19.5897 0.588451 19.8822 0.618846C20.1613 0.648026 20.4589 0.722595 20.6488 0.917935C20.9802 1.25877 21.4057 1.41723 21.8363 1.56191C22.0567 1.63607 22.2787 1.69686 22.4914 1.79656C22.841 1.96029 23.2327 2.01419 23.5852 2.18764C23.8381 2.31206 24.1044 2.42594 24.3784 2.51348C24.4392 2.53293 24.4873 2.57265 24.5299 2.61844C24.5561 2.6464 24.5869 2.67315 24.5684 2.71571C24.5506 2.75623 24.5118 2.7615 24.4713 2.76231C24.3358 2.76393 24.1998 2.77042 24.0694 2.72584C23.9795 2.69463 23.8613 2.67477 23.8013 2.71733C23.6612 2.81743 23.5236 2.82715 23.367 2.7919C23.3332 2.7842 23.2922 2.79635 23.2842 2.83242C23.2737 2.88065 23.326 2.87538 23.353 2.88592C23.6646 3.00466 23.9609 3.15704 24.283 3.25552C24.6165 3.35725 24.9128 3.54772 25.256 3.63891C25.4975 3.70294 25.7069 3.85856 25.9563 3.91489C25.9884 3.92219 26.0235 3.94813 26.0488 3.91368C26.0724 3.88126 26.0462 3.85289 26.0222 3.82817C25.9095 3.71348 25.7833 3.62553 25.6089 3.62756C25.462 3.62918 25.34 3.56393 25.2214 3.49017C25.1876 3.4691 25.1488 3.44762 25.169 3.40426C25.188 3.36292 25.2319 3.34833 25.2788 3.35481C25.3071 3.35887 25.3345 3.37143 25.3628 3.37427C25.3907 3.3771 25.4232 3.38116 25.4396 3.35076C25.4557 3.32077 25.4354 3.29889 25.4177 3.27579C25.3848 3.23283 25.3223 3.21013 25.316 3.14124C25.4637 3.13516 25.5802 3.20041 25.7031 3.26322C26.0294 3.4306 26.3789 3.55258 26.6955 3.74063C26.8057 3.80628 26.9028 3.90355 27.0138 3.94488C27.2033 4.01581 27.3582 4.12847 27.5199 4.23384C27.7778 4.40203 28.0299 4.57832 28.2836 4.75218C28.6289 4.98845 28.959 5.24337 29.2844 5.50436C29.5124 5.68754 29.7062 5.90395 29.9387 6.08389C30.4799 6.50213 30.9118 7.0229 31.3622 7.52543C31.5184 7.6997 31.6581 7.88693 31.8054 8.06849C32.0401 8.35704 32.2542 8.65978 32.461 8.96697C32.4783 8.99291 32.5058 9.03019 32.4699 9.0541C32.4331 9.07842 32.4104 9.03789 32.3897 9.01479C31.9414 8.51307 31.4973 8.00811 31.0452 7.51003C30.7792 7.21702 30.5019 6.93293 30.1764 6.69747C30.1224 6.65856 30.0586 6.55806 30.008 6.6156C29.962 6.66788 30.054 6.75299 30.1068 6.80811C30.3554 7.06707 30.6163 7.3155 30.8552 7.58217C30.9455 7.68308 31.0713 7.76616 31.1178 7.92665C30.9312 7.85451 30.8176 7.71753 30.6923 7.60568C30.2169 7.18339 29.7703 6.73192 29.2722 6.33273C29.1354 6.2229 29.0008 6.11064 28.8648 5.9996C28.8328 5.97325 28.7931 5.96069 28.7589 5.98703C28.7226 6.015 28.7319 6.05958 28.7568 6.08794C28.8032 6.14104 28.8205 6.2152 28.9142 6.23465C28.9792 6.24843 29.0518 6.30638 29.0493 6.38176C29.0468 6.45958 28.9535 6.4612 28.8978 6.49321C28.8859 6.5001 28.8699 6.50172 28.8556 6.50213C28.59 6.50942 28.3266 6.48065 28.0636 6.45107C28.0299 6.44742 27.9885 6.4 27.9619 6.44944C27.9391 6.49159 27.9826 6.51267 28.0151 6.53415C28.3507 6.75502 28.5947 7.07275 28.9155 7.31145C29.078 7.43222 29.2169 7.57852 29.2933 7.78764C29.3608 7.97163 29.5761 8.07011 29.726 8.20669C29.7273 8.24276 29.7463 8.2614 29.7843 8.26262C29.7779 8.31003 29.8066 8.33516 29.8412 8.36515C29.9202 8.43283 30.008 8.49929 30.062 8.58399C30.173 8.75704 30.3246 8.88795 30.482 9.01682C30.482 9.05694 30.5019 9.0849 30.5403 9.10071C30.7303 9.40588 31.0245 9.63202 31.2111 9.94367C31.3609 10.1941 31.5914 10.3943 31.7569 10.6387C31.797 10.6979 31.8303 10.7716 31.9067 10.8041C31.9076 10.8272 31.9127 10.8478 31.9359 10.86C31.9794 11.0172 32.0992 11.1275 32.1976 11.2511C32.1976 11.2912 32.217 11.3191 32.2554 11.335C32.3352 11.5279 32.4513 11.7025 32.5518 11.8853C32.6683 12.0969 32.8253 12.2849 32.9325 12.5017C32.9625 12.5621 32.9646 12.6407 33.041 12.6752C33.0617 12.7818 33.0913 12.8839 33.1862 12.9544C33.1862 12.9731 33.1862 12.9917 33.1862 13.0099C33.1955 13.0501 33.1985 13.093 33.2158 13.1299C33.3247 13.3589 33.442 13.5842 33.5248 13.8245C33.5919 14.0199 33.667 14.2124 33.7388 14.4061C33.7388 14.4247 33.7388 14.4434 33.7388 14.462C33.7388 14.5467 33.7865 14.6148 33.8258 14.6853C33.8258 14.704 33.8258 14.7226 33.8258 14.7412C33.8241 14.8122 33.8351 14.8794 33.884 14.9366C33.884 14.9552 33.884 14.9739 33.884 14.9925C33.884 15.0111 33.8794 15.031 33.8849 15.048C33.9254 15.1684 33.9005 15.3086 34.0001 15.4116V15.8302C33.9381 15.8274 33.9106 15.7848 33.8802 15.741C33.6371 15.3949 33.4729 15.0087 33.2732 14.6407C33.1267 14.37 33.0186 14.0786 32.7979 13.8492C32.7763 13.827 32.7662 13.7844 32.7215 13.8014C32.6801 13.8172 32.689 13.8569 32.6928 13.8869C32.7084 14.0154 32.7253 14.1435 32.7721 14.2667C32.7835 14.2971 32.7987 14.3477 32.7497 14.3627C32.7092 14.3753 32.6995 14.3295 32.6822 14.3035C32.4754 13.9955 32.3225 13.6604 32.16 13.3305C31.9768 12.9581 31.8012 12.582 31.5298 12.2573C31.5044 12.227 31.4812 12.1876 31.439 12.2103C31.3968 12.233 31.4369 12.2675 31.4466 12.2954C31.5901 12.708 31.8122 13.0873 32.0097 13.476C32.236 13.9206 32.4551 14.3676 32.6358 14.8304C32.7687 15.1712 32.889 15.5161 32.9815 15.8715C33.0739 16.2265 33.1461 16.5832 33.1829 16.9463C33.1896 17.014 33.2225 17.1352 33.1546 17.1457C33.0714 17.1587 33.0934 17.0306 33.0537 16.9722C33.0351 16.9447 33.0452 16.8871 32.9857 16.9017C32.9427 16.9123 32.9562 16.9544 32.9532 16.9852C32.9346 17.1854 32.9785 17.3828 32.9899 17.5814C32.9984 17.7321 33.0427 17.8813 33.0739 18.0304C33.0811 18.0652 33.0917 18.1115 33.1398 18.111C33.1985 18.1106 33.1824 18.06 33.1854 18.0259C33.1921 17.9473 33.171 17.8671 33.1997 17.7905C33.2116 17.7593 33.2065 17.7066 33.2605 17.7082C33.3082 17.7098 33.3222 17.7544 33.3264 17.7893C33.3652 18.1009 33.4328 18.4089 33.4488 18.7234C33.4627 19.0006 33.4826 19.2774 33.5092 19.5538C33.5539 20.0207 33.5636 20.4904 33.5518 20.9564C33.5429 21.3066 33.564 21.6604 33.5083 22.0109C33.4724 22.2342 33.475 22.4636 33.4345 22.6857C33.3589 23.1023 33.2905 23.5198 33.1938 23.9339C33.0579 24.5175 32.8831 25.0894 32.6742 25.6494C32.4374 26.2833 32.1326 26.8912 31.7755 27.4727C31.7286 27.5485 31.675 27.6207 31.6193 27.7025C31.5825 27.6519 31.6075 27.6215 31.618 27.5947C31.7738 27.1964 31.9768 26.8174 32.1419 26.4219C32.3445 25.9372 32.5404 25.4521 32.6928 24.9508C32.8578 24.4089 32.9718 23.8582 33.0465 23.2977C33.1039 22.8673 33.171 22.4389 33.1934 22.0036C33.201 21.8541 33.2187 21.6997 33.2331 21.5489C33.2576 21.2859 33.2432 21.0193 33.2382 20.7542C33.2373 20.7149 33.2322 20.6468 33.1748 20.6415C33.114 20.6359 33.1107 20.6995 33.0955 20.742C33.0094 20.9876 32.9503 21.2405 32.8941 21.4938C32.8359 21.7572 32.7417 22.0093 32.6269 22.2545C32.6016 22.3084 32.5619 22.37 32.488 22.3558C32.4104 22.3408 32.4331 22.2691 32.4293 22.216C32.4205 22.0904 32.4762 21.9692 32.4581 21.8428C32.4538 21.8128 32.4707 21.7694 32.4226 21.7641C32.3914 21.7605 32.3757 21.7933 32.3652 21.8197C32.355 21.8456 32.35 21.8727 32.3407 21.8991C32.2356 22.1909 32.1512 22.4896 32.0211 22.7733C32.003 22.8126 31.9831 22.8604 31.9342 22.8503C31.8856 22.8401 31.9046 22.7866 31.9067 22.7534C31.9253 22.4766 31.9333 22.1982 31.9734 21.9238C31.9941 21.7844 31.9798 21.6466 32.0013 21.5084C32.0376 21.275 32.0604 21.0395 32.0503 20.8028C32.049 20.7712 32.0553 20.7287 32.0102 20.7254C31.9625 20.7218 31.9675 20.7647 31.9629 20.7964C31.9148 21.1068 31.8662 21.4168 31.8189 21.7273C31.8122 21.7714 31.8308 21.8403 31.7721 21.8444C31.7033 21.8492 31.7088 21.7779 31.702 21.7289C31.6619 21.4424 31.6754 21.1546 31.6716 20.8669C31.6712 20.8215 31.6936 20.7668 31.6387 20.7262C31.5581 20.8101 31.5522 20.9143 31.5264 21.012C31.4449 21.3208 31.4078 21.6393 31.2997 21.942C31.2887 21.9728 31.2849 22.0113 31.2461 22.0178C31.1963 22.0263 31.1832 21.983 31.1667 21.9506C31.0924 21.8014 31.0671 21.6377 31.0658 21.4788C31.0612 20.8336 31.068 20.1884 31.0013 19.5461C30.978 19.3216 30.9641 19.0954 30.9173 18.8725C30.8552 18.5787 30.8024 18.2841 30.7231 17.9927C30.6349 17.6685 30.5162 17.3581 30.3862 17.0501C30.3757 17.0253 30.3689 16.982 30.3064 17.0002C30.3107 17.0841 30.3043 17.1692 30.3174 17.258C30.3364 17.386 30.374 17.5112 30.3892 17.6385C30.4284 17.9639 30.4825 18.2877 30.5196 18.6136C30.5589 18.9577 30.6032 19.3029 30.618 19.6474C30.6336 20.017 30.6365 20.3887 30.6011 20.7607C30.5466 21.3354 30.4951 21.9104 30.4259 22.4839C30.3546 23.0748 30.233 23.6515 30.019 24.2099C29.9936 24.2756 29.9366 24.3684 30.0261 24.4097C30.1 24.4442 30.1401 24.3465 30.1849 24.2971C30.2672 24.2067 30.3208 24.092 30.4377 24.0263C30.352 24.3668 30.1502 24.6638 30.0544 25.0038C30.1363 25.0038 30.1393 24.9406 30.1608 24.9001C30.3178 24.6075 30.4698 24.3125 30.6007 24.0073C30.6243 23.9526 30.6433 23.8448 30.7096 23.8663C30.7754 23.8877 30.7421 23.9854 30.7222 24.0515C30.7087 24.096 30.6944 24.1406 30.6864 24.186C30.6796 24.2245 30.6349 24.265 30.6906 24.3194C30.8244 23.9939 30.9624 23.6855 31.0637 23.3629C31.1262 23.1647 31.1992 22.9698 31.2706 22.7741C31.2866 22.7295 31.3145 22.6877 31.3774 22.7044C31.4386 22.7206 31.4462 22.7692 31.4382 22.8158C31.4166 22.9386 31.3943 23.0618 31.3626 23.1826C31.1866 23.8525 30.9278 24.4928 30.6349 25.123C30.3115 25.818 29.9409 26.4855 29.4567 27.0894C29.1979 27.412 28.9379 27.7345 28.6398 28.0259C28.6019 28.0628 28.5529 28.1155 28.5056 28.0778C28.4507 28.0344 28.514 27.9891 28.5436 27.9522C28.7361 27.709 28.9303 27.4675 29.1228 27.2239C29.1667 27.1684 29.2038 27.1088 29.2215 27.0399C29.2287 27.0124 29.2384 26.9799 29.2131 26.9617C29.1831 26.9398 29.1595 26.9686 29.1405 26.988C29.0814 27.0492 29.0126 27.1007 28.9636 27.172C28.9193 27.2361 28.867 27.2965 28.7749 27.335C28.7728 27.2182 28.834 27.1416 28.8881 27.0634C29.0025 26.8977 29.1215 26.7343 29.2346 26.5678C29.2895 26.4871 29.3283 26.3854 29.2633 26.3076C29.1983 26.2294 29.1118 26.3096 29.0421 26.3376C28.9552 26.3724 28.8889 26.3477 28.8315 26.2926C28.7728 26.2359 28.7796 26.1658 28.8171 26.0997C28.9695 25.8282 29.1245 25.5579 29.2764 25.2863C29.4313 25.0095 29.588 24.7327 29.6812 24.4288C29.691 24.3968 29.7083 24.3566 29.6775 24.3384C29.6331 24.3125 29.6065 24.357 29.5888 24.387C29.5052 24.5281 29.4157 24.6667 29.3461 24.8138C29.1384 25.2515 28.8319 25.6239 28.4136 25.8711C27.9611 26.1386 27.6166 26.4944 27.2949 26.8839C26.8247 27.4533 26.3726 28.0344 25.7735 28.496C25.2872 28.8705 24.7832 29.2182 24.2581 29.5392C23.9934 29.7009 23.7262 29.8594 23.4611 30.0203C23.4299 30.0393 23.3822 30.0608 23.4011 30.1029C23.4197 30.1451 23.4704 30.1289 23.505 30.1196C23.5789 30.0993 23.6527 30.0762 23.7224 30.0458C24.2729 29.8059 24.7921 29.5153 25.2742 29.1639C25.397 29.0744 25.5283 28.9949 25.657 28.9127C25.6866 28.894 25.7246 28.8867 25.7508 28.9147C25.7697 28.935 25.7478 28.9572 25.7313 28.9743C25.6136 29.0971 25.503 29.2272 25.3755 29.3402C25.1948 29.5003 25.0044 29.6498 24.814 29.799C24.3716 30.1455 23.8904 30.4377 23.3746 30.6695C22.9934 30.8409 22.5944 30.9759 22.2057 31.1323C21.6674 31.3483 21.1022 31.478 20.5425 31.6267C20.5061 31.6365 20.4508 31.6507 20.4369 31.6134C20.4145 31.5538 20.4829 31.5595 20.518 31.542C20.7404 31.431 20.9798 31.3601 21.2082 31.2636C21.2537 31.2446 21.3188 31.2097 21.2981 31.155C21.2795 31.1068 21.2124 31.1315 21.1668 31.138C20.7632 31.1976 20.3618 31.2677 19.9696 31.3799C19.3972 31.5433 18.8168 31.6689 18.2254 31.7564C17.7445 31.8274 17.2637 31.8881 16.7783 31.9125C16.7158 31.9157 16.6575 31.9125 16.6651 31.9972L16.6664 31.9988ZM12.4717 19.0047C12.5561 18.9933 12.5911 19.0334 12.6312 19.0646C13.0095 19.3572 13.3708 19.6701 13.7841 19.9206C14.0352 20.0729 14.3295 20.1475 14.5642 20.3315C14.6212 20.3761 14.7191 20.4065 14.7529 20.263C14.809 20.0251 15.1066 19.861 15.3548 19.9027C15.4207 19.9137 15.5017 19.9279 15.5554 19.9019C15.6997 19.8318 15.8053 19.8938 15.9133 19.9672C16.0277 20.0446 16.1409 20.1236 16.254 20.2022C16.3291 20.2545 16.3979 20.3384 16.3604 20.4113C16.3156 20.4981 16.3646 20.5025 16.4131 20.5277C16.617 20.6342 16.8222 20.7384 17.0235 20.8486C17.0999 20.8908 17.23 20.9755 17.1996 21.018C17.1329 21.1112 17.0142 21.029 16.9286 20.9949C16.4798 20.8178 16.0336 20.6342 15.5895 20.4466C15.5034 20.4101 15.403 20.3761 15.3544 20.4482C15.3025 20.5252 15.4034 20.588 15.4633 20.6347C15.7445 20.8531 16.0319 21.063 16.3452 21.2385C16.4368 21.2896 16.5237 21.3487 16.6107 21.4071C16.6326 21.4221 16.6613 21.4432 16.6516 21.4744C16.6407 21.5096 16.6018 21.5056 16.5778 21.4979C16.4672 21.4638 16.3494 21.4719 16.2375 21.4363C16.0535 21.3779 15.8825 21.2924 15.7039 21.2227C15.3569 21.0873 15.0133 20.9443 14.6672 20.8061C14.6102 20.7834 14.5456 20.6861 14.5009 20.7489C14.4561 20.8113 14.5692 20.8547 14.6115 20.907C14.6254 20.9244 14.6537 20.9309 14.6697 20.9471C14.7073 20.986 14.8099 21.001 14.7845 21.0517C14.7474 21.1246 14.6668 21.0594 14.6047 21.0501C14.5954 21.0484 14.5866 21.0415 14.5773 21.0411C14.4924 21.0403 14.3865 20.9224 14.3594 20.9751C14.3189 21.0545 14.4544 21.1048 14.5093 21.1716C14.5448 21.2154 14.6055 21.2571 14.5536 21.3131C14.5097 21.3601 14.4544 21.3171 14.4088 21.2928C14.1691 21.1651 13.9259 21.0436 13.6743 20.939C13.633 20.922 13.5709 20.8839 13.5451 20.9354C13.5215 20.982 13.5679 21.0233 13.6199 21.0521C13.7748 21.1368 13.9276 21.2255 14.0783 21.3163C14.137 21.3516 14.2543 21.3925 14.2298 21.4395C14.1859 21.523 14.0986 21.4233 14.0272 21.4265C14.0196 21.4265 14.012 21.4347 14.0044 21.4391C13.9985 21.4732 14.0247 21.4906 14.0466 21.5068C14.3122 21.7042 14.6186 21.8318 14.9188 21.9676C15.1847 22.0879 15.4587 22.1913 15.7272 22.3068C15.7875 22.3327 15.8584 22.372 15.8441 22.4482C15.831 22.5167 15.7516 22.5196 15.6938 22.5402C15.6655 22.5504 15.6402 22.5495 15.6098 22.5435C15.1421 22.4466 14.6917 22.3064 14.2767 22.0717C14.1817 22.0178 14.0804 21.9741 13.9825 21.9254C14.0846 22.0956 14.2581 22.1824 14.3953 22.3076C14.53 22.43 14.7094 22.4888 14.8757 22.5674C15.113 22.6792 15.351 22.7838 15.5976 22.8754C15.8221 22.9589 16.053 23.0237 16.2785 23.104C16.3291 23.1222 16.4461 23.1222 16.4148 23.2041C16.3916 23.2644 16.2954 23.2255 16.2316 23.2065C15.9239 23.1137 15.6123 23.0306 15.3088 22.9256C15.0737 22.8442 14.8327 22.7785 14.6034 22.6792C14.5013 22.6351 14.3898 22.5901 14.2438 22.6047C14.3447 22.6967 14.4451 22.7396 14.5465 22.7793C14.8221 22.8879 15.1117 22.9682 15.3544 23.1441C15.4367 23.2036 15.5283 23.2417 15.6305 23.2596C15.801 23.2892 15.961 23.3609 16.1362 23.3743C16.1725 23.3771 16.2202 23.3901 16.2215 23.4355C16.2232 23.4926 16.17 23.4817 16.1349 23.48C15.9999 23.4744 15.8652 23.4934 15.7297 23.4659C15.4241 23.4039 15.1227 23.3321 14.8335 23.2122C14.7516 23.1781 14.6613 23.1181 14.5249 23.1425C14.8901 23.4322 15.3249 23.5181 15.7213 23.6806C15.308 23.6349 14.9141 23.5307 14.5139 23.3649C14.5511 23.4809 14.6389 23.4861 14.7069 23.5218C14.7761 23.5583 14.9116 23.5882 14.8972 23.6409C14.8749 23.7212 14.755 23.6628 14.6786 23.6754C14.6469 23.6806 14.6115 23.6709 14.5785 23.6644C14.1543 23.5826 13.7621 23.4152 13.375 23.2393C13.0487 23.091 12.7135 22.9581 12.4104 22.7656C12.386 22.7497 12.3518 22.7169 12.3201 22.7469C12.2885 22.7773 12.3138 22.813 12.3416 22.8296C12.5658 22.9625 12.6342 23.2421 12.8816 23.354C12.9246 23.3735 12.9605 23.4217 12.9609 23.4663C12.9634 23.6401 13.0854 23.7159 13.2231 23.784C13.2644 23.8043 13.3282 23.8278 13.3012 23.8809C13.2796 23.923 13.2235 23.8898 13.183 23.8776C12.9246 23.8006 12.6768 23.6993 12.4324 23.5887C12.3665 23.5591 12.2682 23.493 12.2112 23.5733C12.1665 23.6365 12.2779 23.6811 12.3049 23.7427C12.3172 23.7706 12.3488 23.7921 12.375 23.8124C12.7406 24.0952 13.1378 24.3319 13.5785 24.4839C14.1577 24.6837 14.7035 24.9641 15.297 25.1287C15.5347 25.1943 15.7749 25.2247 16.0189 25.2065C16.354 25.1814 16.6875 25.1445 17.0185 25.076C17.3486 25.0071 17.677 24.9402 17.9852 24.802C18.0244 24.7846 18.0725 24.7651 18.0531 24.7117C18.0362 24.6659 17.9868 24.6829 17.951 24.6829C17.9176 24.6829 17.8847 24.6926 17.8518 24.6983C17.712 24.721 17.5715 24.7092 17.4317 24.7048C17.3959 24.7035 17.3528 24.6881 17.3427 24.6448C17.3355 24.614 17.3604 24.5961 17.3819 24.5759C17.4744 24.49 17.4689 24.443 17.3435 24.4105C17.1206 24.353 16.8939 24.3088 16.6677 24.2634C16.503 24.2302 16.335 24.2095 16.1864 24.1187C16.3984 24.0608 16.6124 24.0312 16.8184 23.9749C17.3558 23.8278 17.8914 23.6758 18.3955 23.4347C18.8239 23.23 19.2343 22.9982 19.6344 22.7469C19.8607 22.6047 20.057 22.4231 20.2959 22.2995C20.3293 22.2825 20.3715 22.233 20.4091 22.2804C20.4382 22.3177 20.4074 22.3579 20.377 22.3915C20.2444 22.5386 20.1229 22.6942 19.9793 22.8328C19.8662 22.9423 19.7898 23.0788 19.7797 23.2397C19.775 23.3171 19.7923 23.3508 19.8877 23.3216C20.0283 23.2786 20.1212 23.1777 20.2326 23.0975C20.7003 22.7607 21.2044 22.4794 21.7189 22.2152C21.8038 22.1718 21.8891 22.1269 21.9781 22.0932C22.258 21.9874 22.3336 22.0041 22.5387 22.2168C22.5835 22.263 22.6029 22.2298 22.632 22.2075C22.7249 22.1362 22.7726 22.0312 22.8469 21.9461C23.3079 21.416 23.6582 20.8207 23.9584 20.1974C24.1737 19.7512 24.3412 19.2871 24.4877 18.8158C24.6844 18.1836 24.7988 17.5372 24.8077 16.8774C24.8132 16.4612 24.7731 16.0454 24.692 15.6361C24.5996 15.1688 24.4742 14.7088 24.2821 14.2691C24.2235 14.1346 24.1509 14.0032 24.0445 13.8922C24.153 14.2338 24.2066 14.5856 24.3045 14.9252C24.3704 15.153 24.4113 15.3783 24.4379 15.6122C24.5046 16.201 24.4464 16.7761 24.2817 17.3439C24.1559 17.7779 24.0048 18.203 23.7929 18.6059C23.6641 18.8503 23.5223 19.0873 23.3357 19.296C23.3095 19.3252 23.2762 19.384 23.2357 19.3589C23.1791 19.324 23.2336 19.2734 23.2555 19.2389C23.3492 19.0922 23.4451 18.9471 23.516 18.7891C23.5675 18.6748 23.6312 18.5637 23.646 18.4369C23.6494 18.4069 23.6582 18.3688 23.6169 18.3514C23.5848 18.338 23.5637 18.3623 23.5388 18.3753C23.4379 18.4259 23.3737 18.5159 23.3024 18.5937C23.0791 18.8377 22.8258 19.0521 22.5801 19.2734C22.4096 19.427 22.2314 19.5741 22.0495 19.7151C21.96 19.7844 21.8553 19.8363 21.7544 19.891C21.7122 19.9137 21.6544 19.9258 21.6231 19.8792C21.5965 19.8391 21.6138 19.7933 21.643 19.7499C21.7367 19.6105 21.8249 19.4679 21.9157 19.3264C21.9355 19.2956 21.9773 19.2652 21.9461 19.2288C21.9152 19.1927 21.865 19.2041 21.8241 19.2203C21.7932 19.2324 21.765 19.2511 21.7375 19.2701C21.5649 19.388 21.4522 19.5554 21.3327 19.7179C21.2533 19.8257 21.171 19.9319 21.0836 20.047C21.0486 19.9826 21.0807 19.9522 21.0955 19.9206C21.3145 19.4578 21.6632 19.0703 21.9127 18.6253C22.0604 18.3623 22.2698 18.1273 22.3129 17.8164C22.3175 17.7828 22.3627 17.7386 22.315 17.7183C22.266 17.6981 22.2441 17.7524 22.2213 17.7864C22.1052 17.9619 21.9971 18.1427 21.8713 18.3117C21.7679 18.4507 21.6738 18.601 21.5218 18.7072C21.4796 18.6452 21.5129 18.6087 21.5357 18.5771C21.7422 18.2938 21.9064 17.9878 22.0596 17.6762C22.2103 17.3698 22.3336 17.0509 22.418 16.7246C22.5176 16.3376 22.5214 15.9368 22.5151 15.5368C22.5075 15.048 22.3931 14.5787 22.212 14.1317C21.9629 13.5169 21.5594 13.0043 21.0017 12.6018C20.2997 12.0956 19.5272 11.8051 18.6433 11.8107C18.5491 11.8116 18.4622 11.7876 18.3739 11.7641C18.192 11.7159 18.0071 11.6531 17.8214 11.7196C17.6648 11.7755 17.5558 11.741 17.4478 11.6276C17.3313 11.5056 17.2219 11.4987 17.0683 11.5745C17.0147 11.6008 16.9746 11.6397 16.934 11.6794C16.8082 11.8018 16.6829 11.9242 16.5402 12.0288C16.4929 12.0632 16.4376 12.0932 16.3823 12.0689C16.3304 12.0462 16.3485 11.987 16.3477 11.942C16.3464 11.8164 16.3502 11.6908 16.346 11.5651C16.3439 11.5011 16.3583 11.446 16.4017 11.3978C16.4722 11.3204 16.484 11.2255 16.4545 11.136C16.414 11.0132 16.4781 10.9929 16.5761 11.0014C16.6765 11.0103 16.7753 11.0387 16.8779 11.0282C16.937 11.0221 17.0117 11.0501 17.0387 10.9702C17.062 10.9005 17.0105 10.8482 16.9644 10.815C16.8049 10.6991 16.6871 10.5439 16.5398 10.4166C16.5081 10.3891 16.4798 10.355 16.4596 10.3194C16.4127 10.2367 16.4287 10.1816 16.5402 10.1921C16.6356 10.201 16.7289 10.2213 16.8213 10.2488C17.1945 10.3599 17.5267 10.5662 17.902 10.6736C17.9476 10.6865 17.9835 10.693 18.0248 10.6687C18.0789 10.6367 18.0506 10.599 18.0396 10.5589C17.9531 10.2375 17.6821 10.0652 17.4343 9.87802C17.1987 9.6997 16.9264 9.57406 16.6677 9.43141C16.3962 9.28187 16.1214 9.13394 15.8243 9.03465C15.7162 8.99858 15.6275 8.93698 15.5347 8.87943C15.511 8.86484 15.4789 8.85269 15.4916 8.81743C15.5017 8.79028 15.5313 8.79757 15.5545 8.79514C15.839 8.76636 16.1197 8.81864 16.4017 8.83769C16.5871 8.85026 16.7576 8.94792 16.9492 8.93414C16.9817 8.93171 17.0235 8.94347 17.0362 8.90253C17.0506 8.85714 17.013 8.8381 16.9784 8.81864C16.8576 8.75218 16.7378 8.6845 16.6174 8.61723C16.5723 8.5921 16.495 8.57102 16.5111 8.51956C16.5334 8.44823 16.5993 8.50699 16.6466 8.51226C16.6846 8.51672 16.7221 8.52604 16.7605 8.5305C17.0278 8.56211 17.276 8.68977 17.5499 8.67923C17.6424 8.67558 17.7821 8.74164 17.8188 8.62006C17.8547 8.50051 17.715 8.44418 17.6327 8.38055C17.5119 8.28693 17.4267 8.18116 17.3862 8.03364C17.338 7.85816 17.276 7.65877 17.0987 7.58501C16.7833 7.4541 16.4807 7.21419 16.0953 7.37954C16.0653 7.3925 16.0298 7.3921 15.9969 7.39818C15.7563 7.44397 15.5186 7.4999 15.2856 7.57285C14.9551 7.67579 14.6338 7.79939 14.3219 7.94813C13.9356 8.13171 13.5468 8.30193 13.1994 8.55846C12.8123 8.84418 12.4252 9.12746 12.0833 9.46262C11.9955 9.54894 11.9229 9.64985 11.8279 9.76251C11.9144 9.76211 11.9381 9.71672 11.971 9.68794C12.1204 9.55623 12.2462 9.4002 12.4155 9.28835C12.4581 9.26039 12.5012 9.20081 12.5502 9.23526C12.5911 9.26363 12.5709 9.33171 12.5612 9.38116C12.5552 9.41196 12.5358 9.44154 12.5168 9.46788C12.4045 9.62351 12.3302 9.80223 12.2019 9.94894C12.1829 9.97082 12.1491 10.0061 12.18 10.0344C12.2184 10.0701 12.2509 10.0324 12.2775 10.0069C12.5156 9.7767 12.7975 9.59797 13.0618 9.39858C13.2349 9.26809 13.4375 9.18501 13.6566 9.12624C13.6659 9.20811 13.6102 9.23323 13.5739 9.26403C13.2775 9.5153 12.9732 9.75806 12.6815 10.0142C12.353 10.3027 12.055 10.6205 11.7663 10.9455C11.7439 10.9706 11.7114 10.9986 11.7346 11.0298C11.7654 11.0711 11.8038 11.0233 11.8397 11.0241C11.8786 11.0249 11.9068 10.9463 11.9486 11.0026C11.9756 11.0391 11.9457 11.0845 11.9225 11.1194C11.8262 11.2636 11.7363 11.4132 11.6282 11.5493C11.318 11.9404 11.0322 12.3429 10.8815 12.8203C10.8422 12.9443 10.7591 13.0549 10.7582 13.1923C10.9017 12.9658 11.0385 12.7368 11.1677 12.5037C11.231 12.3899 11.2821 12.2719 11.3636 12.1662C11.5248 11.9566 11.708 11.7674 11.8895 11.5745C12.1783 11.2673 12.5253 11.0411 12.8917 10.8353C13.1188 10.7076 13.3754 10.659 13.6194 10.5759C13.9635 10.4588 14.3012 10.3169 14.6068 10.1163C14.9753 9.87396 15.3945 9.86869 15.8167 9.88977C15.8614 9.8918 15.9437 9.88977 15.9522 9.94245C15.9614 10.0004 15.8829 10.0146 15.8369 10.0284C15.6208 10.094 15.4042 10.1585 15.1847 10.2128C14.8618 10.2922 14.6406 10.4636 14.5367 10.7797C14.4844 10.939 14.4008 11.0886 14.2467 11.1972C14.0842 11.3119 13.92 11.418 13.7436 11.5137C13.4979 11.6466 13.2771 11.8213 13.0736 12.0109C12.7135 12.3461 12.413 12.7319 12.0824 13.0922C12.0022 13.1797 11.9727 13.2867 11.9068 13.3763C11.7173 13.634 11.54 13.8983 11.4007 14.1848C11.3842 14.2188 11.3614 14.261 11.3197 14.2517C11.2686 14.2399 11.288 14.1897 11.2947 14.1568C11.3057 14.1025 11.3209 14.0478 11.3437 13.9976C11.4767 13.7042 11.6151 13.4132 11.7827 13.136C11.8313 13.0557 11.8752 12.9726 11.9212 12.8912C11.8245 12.924 11.7519 12.9808 11.7177 13.0594C11.5999 13.3309 11.4045 13.5591 11.2795 13.8298C11.1508 14.1094 11.0529 14.3935 10.9659 14.6853C10.8545 15.0578 10.8384 15.4411 10.7945 15.8217C10.7911 15.8509 10.8084 15.8971 10.7582 15.8983C10.7168 15.8991 10.7105 15.8594 10.708 15.8257C10.6978 15.6875 10.6831 15.5489 10.6797 15.4103C10.6755 15.2393 10.719 15.065 10.7139 14.9013C10.7054 14.6253 10.7738 14.3716 10.8317 14.1106C10.8536 14.0118 10.8929 13.9125 10.8599 13.7698C10.7038 14.0632 10.6485 14.3506 10.5978 14.631C10.5438 14.9297 10.5442 15.2353 10.5843 15.5425C10.6151 15.7803 10.6349 16.019 10.6738 16.2569C10.7434 16.6857 10.9169 17.0817 11.0554 17.4886C11.1238 17.69 11.2774 17.8452 11.3842 18.0255C11.6101 18.4069 11.9014 18.7425 12.2087 19.0598C12.4468 19.3054 12.7363 19.506 13.0073 19.7212C13.096 19.7913 13.1944 19.8496 13.2729 19.9327C13.3007 19.9623 13.3552 19.9818 13.3911 19.9461C13.4232 19.9141 13.3788 19.8877 13.3565 19.8679C13.2606 19.7832 13.1686 19.6944 13.0719 19.6105C12.8617 19.4282 12.6485 19.245 12.4746 19.0014L12.4717 19.0047ZM25.0956 4.2152C25.042 4.22574 24.9698 4.19494 24.9394 4.25978C24.9094 4.32503 24.9626 4.37244 25.004 4.41743C25.0264 4.44174 25.0513 4.46403 25.0758 4.48673C25.3915 4.78055 25.7081 5.07396 26.023 5.369C26.1543 5.49179 26.2797 5.62067 26.4131 5.74144C26.5862 5.89828 26.7846 6.01013 27.0319 6.00203C27.1223 5.99919 27.2029 5.96029 27.1349 5.85167C27.0893 5.77954 27.113 5.73131 27.1674 5.68106C27.246 5.60932 27.3452 5.57366 27.4401 5.5307C27.56 5.4768 27.574 5.41358 27.4836 5.31915C27.3853 5.21621 27.2734 5.12705 27.1531 5.05086C26.7871 4.81905 26.4046 4.61641 25.999 4.45512C25.709 4.34002 25.4114 4.24721 25.0956 4.2156V4.2152Z" fill="white"/>
<path d="M19.6617 0.00158691C19.6663 0.040898 19.6908 0.0558929 19.7305 0.0571087C20.2657 0.0769669 20.7921 0.166126 21.3173 0.256501C21.8234 0.343228 22.3245 0.457109 22.8209 0.588821C23.5744 0.789024 24.306 1.04637 25.0283 1.33249C25.4829 1.51283 25.9261 1.71547 26.3652 1.9258C26.7181 2.0948 27.0583 2.28933 27.4007 2.47859C27.9102 2.76066 28.3851 3.09176 28.8621 3.42084C29.38 3.77788 29.8571 4.17828 30.3298 4.58639C30.9356 5.10878 31.4738 5.68913 31.9909 6.29095C32.4984 6.88143 32.9454 7.51162 33.3709 8.15681C33.5026 8.3566 33.6174 8.56653 33.7386 8.77241C33.7597 8.80848 33.7909 8.85873 33.7508 8.88669C33.7014 8.92114 33.6774 8.86278 33.655 8.83117C33.4777 8.57788 33.3114 8.31648 33.1235 8.07048C32.8842 7.75762 32.6562 7.43664 32.4029 7.13269C32.1408 6.8182 31.8702 6.51101 31.5984 6.20503C31.4481 6.03563 31.2868 5.87474 31.1235 5.71668C30.7668 5.37018 30.4185 5.01476 30.0318 4.69946C29.6793 4.41212 29.3252 4.12682 28.955 3.85853C28.4349 3.48163 27.8933 3.13593 27.3454 2.79956C27.1018 2.65002 26.8447 2.52114 26.5931 2.38457C26.2744 2.21192 25.9519 2.0486 25.6209 1.89946C25.1633 1.69318 24.7041 1.49135 24.2321 1.31547C23.7694 1.14282 23.3009 0.985984 22.8277 0.84414C22.1835 0.650827 21.53 0.48953 20.8694 0.36025C20.5262 0.292975 20.1796 0.24029 19.8326 0.190442C19.5422 0.148699 19.2492 0.135326 18.9596 0.0887197C18.8989 0.0789932 18.8718 0.0599456 18.8765 0.00239745H19.6617V0.00158691Z" fill="white"/>
<path d="M15.532 31.9988C15.532 31.9218 15.5603 31.88 15.6485 31.9149C15.6308 31.9437 15.5856 31.9554 15.5902 31.9988H15.532Z" fill="white"/>
<path d="M0.0318752 0.00189792C0.0219056 0.0114719 0.0119359 0.0210458 0.00196628 0.0306197C-0.0041022 0.00564425 0.00586744 -0.00392969 0.0318752 0.00189792Z" fill="white"/>
<path d="M0.00180276 31.9708C0.0119845 31.9806 0.0221663 31.9904 0.032348 32.0002C0.00622961 32.0057 -0.00395215 31.9959 0.00180276 31.9708Z" fill="white"/>
<path d="M16.6663 31.6357C16.6642 31.6888 16.589 31.7139 16.608 31.7755C16.3712 31.8456 16.1297 31.889 15.8811 31.8869C15.8849 31.831 15.9174 31.8022 15.974 31.8039C16.0377 31.8059 16.0601 31.7755 16.0554 31.7192C16.0766 31.6863 16.1107 31.6924 16.1428 31.6916C16.147 31.7212 16.134 31.7633 16.18 31.7678C16.2395 31.7735 16.2256 31.7244 16.2302 31.6916C16.2712 31.6454 16.3265 31.6705 16.3754 31.664C16.3775 31.6997 16.3725 31.741 16.4265 31.7451C16.4894 31.75 16.4915 31.707 16.4915 31.664C16.5455 31.6304 16.6059 31.6353 16.6659 31.6361L16.6663 31.6357Z" fill="white"/>
<path d="M16.4921 31.6636C16.4921 31.7065 16.4895 31.7491 16.4271 31.7446C16.3726 31.7406 16.3781 31.6996 16.376 31.6636H16.4925H16.4921Z" fill="white"/>
<path d="M16.2302 31.6917C16.2256 31.7249 16.2395 31.7735 16.18 31.7678C16.134 31.7634 16.147 31.7212 16.1428 31.6917C16.1719 31.6917 16.2011 31.6917 16.2302 31.6917Z" fill="white"/>
<path d="M15.7356 31.9149C15.7474 31.8554 15.7749 31.8412 15.823 31.887C15.8019 31.9198 15.7677 31.9137 15.7356 31.9149Z" fill="white"/>
<path d="M5.71666 7.94938C5.70316 7.8278 5.74453 7.75445 5.788 7.68596C6.1903 7.04766 6.61539 6.42517 7.11942 5.85415C7.30136 5.64827 7.50356 5.46347 7.70196 5.27421C7.76106 5.21787 7.84929 5.13601 7.92147 5.19234C7.99197 5.24746 7.91092 5.33743 7.87377 5.4047C7.82312 5.49589 7.76402 5.58262 7.70745 5.6734C7.77035 5.69852 7.7885 5.66286 7.80961 5.64179C8.11439 5.33662 8.43943 5.05131 8.77503 4.77937C9.1655 4.46245 9.59482 4.19214 10.0343 3.94087C10.399 3.73256 10.7662 3.52669 11.1445 3.3431C11.5396 3.15141 11.9339 2.95364 12.3628 2.8353C12.4079 2.82274 12.4691 2.79599 12.4902 2.84786C12.5088 2.89447 12.448 2.9277 12.4088 2.94959C12.2505 3.03834 12.0922 3.12871 11.928 3.20653C11.3125 3.4967 10.6907 3.77309 10.1107 4.12932C9.48337 4.51433 8.8907 4.94189 8.36725 5.44888C7.84338 5.95587 7.39803 6.52527 6.98011 7.11737C6.57655 7.6892 6.21436 8.28373 5.86399 8.88555C5.81502 8.96985 5.77407 9.05901 5.73313 9.14736C5.71624 9.18424 5.69936 9.21909 5.65123 9.20653C5.60606 9.19477 5.61704 9.15587 5.62337 9.12466C5.74621 8.5504 5.9252 7.9968 6.25573 7.49629C6.3714 7.32081 6.47397 7.13763 6.58373 6.9581C6.59935 6.93257 6.61581 6.90177 6.58542 6.88474C6.55418 6.86732 6.53772 6.90055 6.51914 6.92203C6.27853 7.19923 6.07337 7.50156 5.84879 7.79011C5.81291 7.83631 5.77407 7.88049 5.71835 7.94817L5.71666 7.94938Z" fill="white"/>
<path d="M12.8684 1.37464C12.8878 1.38031 12.9579 1.34384 12.9638 1.41395C12.9688 1.47595 12.9085 1.47555 12.8591 1.48163C12.323 1.55012 11.8033 1.68507 11.2908 1.84637C10.8185 1.9951 10.36 2.17788 9.91638 2.39146C9.25109 2.71202 8.62 3.08933 8.04885 3.54809C7.40088 4.06846 6.80356 4.63705 6.29657 5.29277C6.08888 5.56147 5.90061 5.83948 5.70938 6.11749C5.68786 6.14911 5.67013 6.22368 5.60681 6.18355C5.5591 6.15316 5.60681 6.10696 5.62369 6.0721C5.94071 5.41273 6.36074 4.8182 6.85379 4.26825C7.36415 3.69926 7.9429 3.20199 8.58877 2.78295C9.13585 2.42793 9.71375 2.12195 10.3364 1.89865C10.8105 1.72844 11.2921 1.58578 11.7885 1.49419C12.1377 1.42975 12.4914 1.39044 12.8688 1.37383L12.8684 1.37464Z" fill="white"/>
</g>
<defs>
<clipPath id="clip0_0_920">
<rect width="34" height="32" fill="white"/>
</clipPath>
</defs>
</svg>
